<svg width="102" height="102" xmlns="http://www.w3.org/2000/svg"><path d="M101.4 92.496v7.224c0 1.008-.672 1.68-1.68 1.68H2.28c-1.008 0-1.68-.672-1.68-1.68v-7.224c0-3.528 1.848-6.72 5.04-8.232 10.027-5.317 17.718-8.299 24.564-9.442l-.708-.974c-.336-.336-.336-1.008-.336-1.344l1.574-6.298C26.57 60.32 24.12 52.96 24.12 45.96v-6.72h-5.04c-1.008 0-1.68-.672-1.68-1.68s.672-1.68 1.68-1.68h1.68V34.2c0-13.272 8.736-24.528 21.84-28.224V5.64C42.6 2.784 44.952.6 47.64.6h6.72c2.856 0 5.04 2.352 5.04 5.04v.336C72.504 9.672 81.24 20.928 81.24 34.2v1.68h1.68c1.008 0 1.68.672 1.68 1.68s-.672 1.68-1.68 1.68h-5.04v6.72c0 7-2.45 14.36-6.615 20.246l1.575 6.298c.168.504 0 1.008-.336 1.344l-.709.974c6.847 1.143 14.538 4.125 24.565 9.442 3.024 1.68 5.04 4.872 5.04 8.232zM46.968 89.64h8.195l-1.643-3.695-2.51-5.525-1.018 2.289zm-2.285 8.4h12.573l-.96-5.04H45.69zm23.19-27.763l-.032.032-.13.129c-3.903 3.905-8.736 6.623-14.15 7.283l4.53 10.19 2.217-3.044 6.988-9.675c.089-.134.19-.242.3-.332l1.716-2.356-.672-3.024c-.253.272-.51.538-.768.797zm-2.93-50.021l7.729-1.512c-1.548-2.013-3.525-3.882-5.667-5.478a25.449 25.449 0 00-.554-.379zM35.55 12.887c-.187.124-.372.25-.554.379-2.142 1.596-4.119 3.465-5.667 5.478l7.728 1.512zM24.12 34.2v1.68h53.76V34.2c0-4.526-1.153-8.793-3.238-12.51l-11.546 2.43h-.336c-.504 0-.84-.168-1.176-.504-.336-.336-.504-1.008-.504-1.512l2.26-10.999a27.842 27.842 0 00-3.94-1.557v4.492c0 1.008-.672 1.68-1.68 1.68s-1.68-.672-1.68-1.68v-8.4c0-1.008-.84-1.68-1.68-1.68h-6.72c-1.008 0-1.68.84-1.68 1.68v8.4c0 1.008-.672 1.68-1.68 1.68s-1.68-.672-1.68-1.68V9.548a27.827 27.827 0 00-3.818 1.5l2.306 11.224c.168.504 0 1.176-.504 1.512-.504.168-.84.336-1.344.336h-.336l-11.622-2.294C25.245 25.512 24.12 29.73 24.12 34.2zm3.36 5.04v6.72c0 7.325 2.513 13.835 6.286 18.783l.098.033.504.504c2.293 2.866 4.866 5.131 7.601 6.703 2.7 1.509 5.548 2.391 8.331 2.519a1.6 1.6 0 01.7-.15c.257 0 .513.05.742.148 4.546-.222 9.265-2.454 13.22-6.14a28.148 28.148 0 002.67-3.08l.504-.504.098-.033c3.773-4.948 6.286-11.458 6.286-18.783v-6.72zm6.572 30.96a30.919 30.919 0 01-.692-.72l-.672 3.024 1.842 2.53c.061.052.12.105.174.158l6.988 9.676 2.217 3.044 4.53-10.19c-5.524-.674-10.443-3.49-14.387-7.523zM3.96 98.04h37.23l1.273-6.365-10.026-13.784c-6.867.852-14.575 3.707-25.284 9.397-2.016 1.008-3.192 3.024-3.192 5.208zm94.08-5.544c0-2.184-1.176-4.2-3.192-5.376-10.486-5.493-18.333-8.346-25.176-9.378L59.538 91.676l1.273 6.364H98.04z" fill="#6f9ac8"/></svg>