<svg width="121" height="102" xmlns="http://www.w3.org/2000/svg"><path d="M120.461 99.46c0 1.075-.87 1.946-1.944 1.946H2.405a1.944 1.944 0 010-3.89h2.203V57.967c0-1.074.87-1.945 1.944-1.945h2.274l1.93-52.126h-.057a1.944 1.944 0 010-3.89h16.587a1.944 1.944 0 010 3.89h-.056l1.93 52.126h1.735l20.272-12.17a1.942 1.942 0 012.944 1.668v9.012l17.79-10.68a1.943 1.943 0 012.945 1.668v9.012l17.79-10.68a1.942 1.942 0 012.944 1.668v9.012l17.79-10.68a1.942 1.942 0 012.944 1.668v51.996h2.203c1.074 0 1.944.87 1.944 1.945zM91.692 89.218V84.81H74.846v4.408zm-20.734 0V84.81H54.111v4.408zm-20.734 0V84.81h-6.48v4.408zm45.356 0h16.847V84.81H95.58zM91.692 72.62v-4.41H74.846v4.409zm-20.734 0v-4.41H54.111v4.409zm-20.734 0v-4.41h-6.48v4.409zm45.356 0h16.847v-4.41H95.58zM50.224 57.967v-9.012L33.377 59.069v38.447h79.05v-4.409H41.8a1.944 1.944 0 01-1.943-1.945v-8.299c0-1.074.87-1.944 1.943-1.944h70.627v-4.41H41.8a1.944 1.944 0 01-1.943-1.944v-8.299c0-1.074.87-1.945 1.943-1.945h70.627V48.955l-17.79 10.68a1.942 1.942 0 01-2.945-1.668v-9.012l-17.79 10.68a1.943 1.943 0 01-2.944-1.668v-9.012l-17.79 10.68a1.942 1.942 0 01-2.944-1.668zm-37.2-10.243h11.938l-.163-4.409H13.186zm1.621-43.828L13.33 39.425h11.325L23.34 3.896zm-1.929 52.126h12.553l-.163-4.409H12.879zm16.773 41.494V59.912H8.496v37.604zm-2.332-31.25v8.299c0 1.074-.87 1.945-1.944 1.945h-12.44a1.944 1.944 0 01-1.945-1.945v-8.299c0-1.074.87-1.945 1.944-1.945h12.44c1.074 0 1.945.87 1.945 1.945zm-3.888 1.945h-8.553v4.409h8.553zm3.888 14.652v8.3c0 1.074-.87 1.944-1.944 1.944h-12.44a1.944 1.944 0 01-1.945-1.945v-8.299c0-1.074.87-1.944 1.944-1.944h12.44c1.074 0 1.945.87 1.945 1.944zm-3.888 1.946h-8.553v4.408h8.553z" fill="#6f9ac8"/></svg>