<svg width="103" height="93" xmlns="http://www.w3.org/2000/svg"><path d="M96.241 34.328v1.707c0 1.025-.682 1.708-1.706 1.708s-1.707-.683-1.707-1.708v-1.707c0-1.025.683-1.708 1.707-1.708s1.706.683 1.706 1.708zm0-13.835v3.929c0 .853-.682 1.707-1.706 1.707s-1.707-.683-1.707-1.707v-3.929c0-1.024.683-1.708 1.707-1.708s1.706.684 1.706 1.708zm-5.12-11.785c0-1.024.683-1.707 1.707-1.707h3.413v3.416c0 1.024-.682 1.707-1.706 1.707s-1.707-.683-1.707-1.707c-1.024 0-1.706-.684-1.706-1.709zm-60.927 0c0-1.024.682-1.707 1.706-1.707h3.413c1.025 0 1.707.683 1.707 1.708 0 1.024-.853 1.708-1.707 1.708H31.9c-1.024 0-1.706-.684-1.706-1.708zm12.117 0c0-1.024.682-1.707 1.707-1.707h3.413c1.024 0 1.706.683 1.706 1.708 0 1.024-.682 1.708-1.706 1.708h-3.413c-1.025 0-1.707-.684-1.707-1.708zm-24.405 0c0-1.024.682-1.707 1.706-1.707h3.414c1.024 0 1.706.683 1.706 1.708 0 1.024-.682 1.708-1.706 1.708h-3.414c-1.024 0-1.706-.684-1.706-1.708zm48.81 0c0-1.024.683-1.707 1.707-1.707h3.413c1.024 0 1.707.683 1.707 1.708 0 1.024-.683 1.708-1.707 1.708h-3.413c-1.024 0-1.707-.684-1.707-1.708zm-12.117 0c0-1.024.682-1.707 1.706-1.707h3.414c1.024 0 1.706.683 1.706 1.708 0 1.024-.853 1.708-1.706 1.708h-3.414c-1.024 0-1.706-.684-1.706-1.708zm24.405 0c0-1.024.683-1.707 1.707-1.707h3.413c1.024 0 1.707.683 1.707 1.708 0 1.024-.853 1.708-1.707 1.708h-3.413c-1.024 0-1.707-.684-1.707-1.708zm-71.51 1.709V7h3.414c1.024 0 1.707.683 1.707 1.708 0 1.024-.683 1.708-1.707 1.708 0 1.024-.682 1.707-1.706 1.707-1.025 0-1.707-.683-1.707-1.707zm.001 36.891v-3.587c0-1.025.682-1.708 1.706-1.708 1.025 0 1.707.683 1.707 1.708v3.587c0 1.025-.682 1.708-1.707 1.708-1.024 0-1.706-.683-1.706-1.708zm0-12.297v-3.587c0-1.025.682-1.708 1.706-1.708 1.025 0 1.707.683 1.707 1.708v3.587c0 1.025-.682 1.708-1.707 1.708-1.024 0-1.706-.683-1.706-1.708zm0-12.297v-3.587c0-1.025.682-1.708 1.706-1.708 1.025 0 1.707.683 1.707 1.708v3.587c0 1.024-.682 1.708-1.707 1.708-1.024 0-1.706-.684-1.706-1.708zm0 37.062V56.19c0-1.025.682-1.708 1.706-1.708 1.025 0 1.707.683 1.707 1.708v3.587c0 .854-.682 1.708-1.707 1.708-1.024 0-1.706-.683-1.706-1.708zm3.413 12.127H7.495v-3.417c0-1.024.682-1.707 1.707-1.707 1.024 0 1.706.683 1.706 1.707 1.024 0 1.707.684 1.707 1.708 0 1.025-.683 1.708-1.707 1.708zm25.6-1.709c0 1.025-.683 1.708-1.707 1.708h-3.413c-1.024 0-1.706-.683-1.706-1.708 0-1.024.682-1.708 1.706-1.708h3.413c1.024 0 1.707.684 1.707 1.708zm-18.773 0c0-1.024.683-1.707 1.707-1.707h3.413c1.024 0 1.707.683 1.707 1.707 0 1.025-.683 1.708-1.707 1.708h-3.413c-1.024 0-1.707-.683-1.707-1.708zm30.72 0c0 1.025-.683 1.708-1.707 1.708h-3.413c-1.024 0-1.707-.683-1.707-1.708 0-1.024.683-1.708 1.707-1.708h3.413c1.024 0 1.707.684 1.707 1.708zm10.24 0c0 1.025-.683 1.708-1.707 1.708h-1.707c-1.023 0-1.706-.683-1.706-1.708 0-1.024.683-1.708 1.706-1.708h1.707c1.024 0 1.707.684 1.707 1.708zm44.373 8.54H89.415V90.69c0 .683-.342 1.366-1.024 1.537-.17.17-.512.17-.683.17-.512 0-.853-.17-1.194-.512l-9.046-9.052-9.045 9.052c-.512.512-1.195.683-1.877.342-.683-.17-1.024-.854-1.024-1.537V78.734H.668V.17h102.4zm-17.066 7.857V67.974c-5.12 3.074-11.947 3.074-17.067 0v18.617l7.339-7.345c.34-.341.682-.512 1.194-.512.512 0 .854.17 1.195.512l7.339 7.345zm5.12-33.476c0-7.515-6.144-13.663-13.654-13.663-7.509 0-13.653 6.148-13.653 13.663 0 5.162 2.898 9.678 7.146 12l.017.01c.064.036.13.067.195.101.127.065.254.132.382.193a13.987 13.987 0 002.894 1.015c.388.09.78.16 1.174.216l.088.01c.166.023.332.042.499.058.084.008.169.013.254.02a13.727 13.727 0 001.005.041c.216 0 .432-.007.647-.017.104-.005.21-.014.315-.022.106-.007.213-.014.32-.024a14.41 14.41 0 00.988-.131 11.967 11.967 0 00.575-.11c6.155-1.319 10.808-6.821 10.808-13.36zm8.533 22.203V3.584H4.082v71.734h61.44V65.28c-3.155-3.104-5.12-7.414-5.12-12.164 0-9.394 7.68-17.08 17.066-17.08 9.387 0 17.067 7.686 17.067 17.08 0 4.75-1.966 9.06-5.12 12.164v10.04zM82.588 24.08c0 1.025-.683 1.708-1.707 1.708H22.855c-1.024 0-1.707-.683-1.707-1.708s.683-1.708 1.707-1.708h58.027c1.023 0 1.706.683 1.706 1.708zm-20.48 10.248c0 1.024-.683 1.707-1.707 1.707H22.855c-1.024 0-1.707-.683-1.707-1.707 0-1.025.683-1.708 1.707-1.708h37.547c1.023 0 1.706.683 1.706 1.708zm-40.96 10.247c0-1.025.683-1.708 1.707-1.708H55.28c1.024 0 1.707.683 1.707 1.708s-.683 1.708-1.707 1.708H22.855c-1.024 0-1.707-.683-1.707-1.708zm0 11.956c0-1.025.683-1.708 1.707-1.708H55.28c1.024 0 1.707.683 1.707 1.708s-.683 1.708-1.707 1.708H22.855c-1.024 0-1.707-.683-1.707-1.708z" fill="#6f9ac8"/></svg>