<?xml version="1.0" encoding="UTF-8"?>
<svg id="SVGDoc" width="121" height="102" xmlns="http://www.w3.org/2000/svg" version="1.1" xmlns:xlink="http://www.w3.org/1999/xlink" xmlns:avocode="https://avocode.com/" viewBox="0 0 121 102"><defs></defs><desc>Generated with Avocode.</desc><g><g><title>Shape 1</title><path d="M120.46124,99.46088c0,1.07431 -0.87021,1.94514 -1.94389,1.94514h-116.11221c-1.07357,0 -1.94389,-0.87082 -1.94389,-1.94514c0,-1.07431 0.87032,-1.94478 1.94389,-1.94478h2.20299v-39.54864c0,-1.07431 0.87032,-1.94514 1.94389,-1.94514h2.27371l1.92936,-52.12605h-0.0563c-1.07346,0 -1.94378,-0.87082 -1.94378,-1.94514c0,-1.07431 0.87032,-1.94514 1.94378,-1.94514h16.58752c1.07346,0 1.94378,0.87082 1.94378,1.94514c0,1.07431 -0.87032,1.94514 -1.94378,1.94514h-0.05619l1.92924,52.12605h1.73527l20.27275,-12.17079c0.60047,-0.36085 1.34823,-0.36979 1.95774,-0.02468c0.6094,0.34511 0.98614,0.9917 0.98614,1.69265v9.01294l17.79041,-10.68091c0.60059,-0.36085 1.34823,-0.36979 1.95797,-0.02468c0.60917,0.34511 0.98614,0.9917 0.98614,1.69265v9.01294l17.79018,-10.68091c0.60059,-0.36085 1.34834,-0.36979 1.95786,-0.02468c0.6094,0.34511 0.98614,0.9917 0.98614,1.69265v9.01294l17.79041,-10.68091c0.60047,-0.36085 1.34823,-0.36979 1.95774,-0.02468c0.6094,0.34511 0.98637,0.9917 0.98637,1.69265v51.99659h2.20287c1.07368,0 1.94389,0.87047 1.94389,1.94478zM91.69228,89.21735v-4.40884h-16.8465v4.40884zM70.95798,89.21735v-4.40884h-16.84673v4.40884zM50.22358,89.21735v-4.40884h-6.47942v4.40884zM95.57995,89.21735h16.84673v-4.40884h-16.84673zM91.69228,72.61984v-4.40884h-16.8465v4.40884zM70.95798,72.61984v-4.40884h-16.84673v4.40884zM50.22358,72.61984v-4.40884h-6.47942v4.40884zM95.57995,72.61984h16.84673v-4.40884h-16.84673zM50.22358,57.96747v-9.01294l-16.8465,10.11443v38.44714h79.04961v-4.40884h-70.62641c-1.07346,0 -1.94378,-0.87047 -1.94378,-1.94478v-8.29911c0,-1.07431 0.87032,-1.94478 1.94378,-1.94478h70.62641v-4.40884h-70.62641c-1.07346,0 -1.94378,-0.87047 -1.94378,-1.94514v-8.2984c0,-1.07467 0.87032,-1.94514 1.94378,-1.94514h70.62641v-15.36655l-17.7903,10.68056c-0.60047,0.36085 -1.34823,0.36979 -1.95786,0.02468c-0.60928,-0.34511 -0.98625,-0.9917 -0.98625,-1.6923v-9.01294l-17.79018,10.68056c-0.60059,0.36085 -1.34823,0.36979 -1.95797,0.02468c-0.6094,-0.34511 -0.98614,-0.9917 -0.98614,-1.6923v-9.01294l-17.7903,10.68056c-0.60047,0.36085 -1.34823,0.36979 -1.95786,0.02468c-0.60928,-0.34511 -0.98625,-0.9917 -0.98625,-1.6923zM13.02319,47.72358h11.93905l-0.16331,-4.40848h-11.61255zM14.64527,3.89628l-1.31504,35.52854h11.32439l-1.31504,-35.52854zM12.71603,56.02233h12.55302l-0.16319,-4.40884h-12.22687zM29.48929,97.5161v-37.60386h-20.9935v37.60386zM27.15675,66.26622v8.2984c0,1.07467 -0.87044,1.94514 -1.94389,1.94514h-12.44064c-1.07346,0 -1.94378,-0.87047 -1.94378,-1.94514v-8.2984c0,-1.07467 0.87032,-1.94514 1.94378,-1.94514h12.44064c1.07346,0 1.94389,0.87047 1.94389,1.94514zM23.26897,68.211h-8.55286v4.40884h8.55286zM27.15675,82.86337v8.29911c0,1.07431 -0.87044,1.94478 -1.94389,1.94478h-12.44064c-1.07346,0 -1.94378,-0.87047 -1.94378,-1.94478v-8.29911c0,-1.07431 0.87032,-1.94478 1.94378,-1.94478h12.44064c1.07346,0 1.94389,0.87047 1.94389,1.94478zM23.26897,84.80851h-8.55286v4.40884h8.55286z" fill="#6f9ac8" fill-opacity="1"></path></g></g></svg>