<?xml version="1.0" encoding="UTF-8"?>
<svg id="SVGDoc" width="102" height="102" xmlns="http://www.w3.org/2000/svg" version="1.1" xmlns:xlink="http://www.w3.org/1999/xlink" xmlns:avocode="https://avocode.com/" viewBox="0 0 102 102"><defs></defs><desc>Generated with Avocode.</desc><g><g><title>Shape 1</title><path d="M101.39959,92.49572v7.22408c0,1.0078 -0.672,1.67978 -1.67999,1.67978h-97.43958c-1.008,0 -1.67999,-0.67198 -1.67999,-1.67978v-7.22408c0,-3.528 1.84811,-6.71983 5.03998,-8.23188c10.02674,-5.31721 17.71797,-8.29875 24.5644,-9.44209l-0.7085,-0.97382c-0.336,-0.33617 -0.336,-1.00815 -0.336,-1.34432l1.57436,-6.29747c-4.16405,-5.88655 -6.61434,-13.24618 -6.61434,-20.24639v-6.72019h-5.03986c-1.008,0 -1.67999,-0.67198 -1.67999,-1.67978c0,-1.00815 0.672,-1.68014 1.67999,-1.68014h1.67988v-1.67978c0,-13.27193 8.73596,-24.52791 21.8399,-28.22399v-0.33617c0,-2.85602 2.35188,-5.03969 5.03998,-5.03969h6.71997c2.85599,0 5.03998,2.35176 5.03998,5.03969v0.33653c13.10394,3.69608 21.8399,14.95206 21.8399,28.22399v1.67978h1.67988c1.008,0 1.67999,0.67198 1.67999,1.67978c0,1.00815 -0.672,1.68014 -1.67999,1.68014h-5.03986v6.71983c0,7.00057 -2.45029,14.35983 -6.61434,20.24639l1.57448,6.29747c0.16788,0.50426 0,1.00815 -0.33611,1.34432l-0.7085,0.97382c6.84666,1.14334 14.53766,4.12488 24.5644,9.44209c3.02399,1.67978 5.04009,4.87196 5.03998,8.23188zM46.96806,89.63971h8.19454l-1.64223,-3.69501l-2.51095,-5.52428l-1.01704,2.2881zM44.68313,98.03967h12.57271l-0.95993,-5.04005h-10.60478zM67.87206,70.27702c-0.01041,0.01073 -0.02071,0.02146 -0.03113,0.03183c-0.04303,0.04327 -0.08652,0.08583 -0.12978,0.12875c-3.90324,3.90565 -8.73596,6.62327 -14.14982,7.28345l4.52923,10.19061l2.21729,-3.04449l6.98776,-9.67562c0.08915,-0.1334 0.19043,-0.24176 0.29984,-0.33152l1.71616,-2.35641l-0.67188,-3.02374c-0.2528,0.27215 -0.5088,0.53787 -0.76767,0.79715zM64.94386,20.25597l7.72797,-1.51205c-1.54816,-2.01273 -3.52489,-3.88205 -5.66643,-5.47779c-0.18288,-0.12875 -0.36781,-0.25463 -0.55435,-0.37873zM35.5488,12.8874c-0.18654,0.1241 -0.37148,0.24998 -0.55424,0.37837c-2.14142,1.59574 -4.11839,3.46541 -5.66654,5.47814l7.72797,1.51205zM24.12016,34.19988v1.67978h53.75931v-1.67978c0,-4.52578 -1.15265,-8.79264 -3.23753,-12.51054l-11.54629,2.4308c-0.16811,0 -0.16811,0 -0.33611,0c-0.504,0 -0.83988,-0.16809 -1.17588,-0.5039c-0.33611,-0.33617 -0.504,-1.00815 -0.504,-1.51205l2.25998,-10.9992c-1.25095,-0.6094 -2.56702,-1.13046 -3.94009,-1.55675v4.49145c0,1.00815 -0.67188,1.68014 -1.67988,1.68014c-1.008,0 -1.67999,-0.67198 -1.67999,-1.68014v-8.39996c0,-1.0078 -0.83977,-1.67978 -1.67988,-1.67978h-6.71997c-1.008,0 -1.67988,0.83971 -1.67988,1.67978v8.40032c0,1.0078 -0.672,1.67978 -1.67999,1.67978c-1.008,0 -1.67988,-0.67198 -1.67988,-1.67978v-4.49181c-1.32877,0.4127 -2.60365,0.91445 -3.81832,1.49918l2.30633,11.22451c0.168,0.50426 0,1.17588 -0.504,1.51205c-0.504,0.16809 -0.84,0.33617 -1.34399,0.33617c-0.16811,0 -0.16811,0 -0.33611,0l-11.62159,-2.29383c-2.03693,3.68571 -3.16246,7.90322 -3.16246,12.37357zM27.4798,39.23993v6.71983c0,7.32529 2.51289,13.83519 6.28578,18.78333l0.09808,0.03254c0.168,0.16809 0.33611,0.33617 0.504,0.5039c2.29317,2.86674 4.86626,5.13196 7.60139,6.70338c2.69989,1.50883 5.5481,2.3911 8.33107,2.51877c0.20874,-0.09942 0.44151,-0.14985 0.69969,-0.14985c0.25681,0 0.51338,0.04935 0.74215,0.1477c4.54639,-0.22137 9.26456,-2.45333 13.22033,-6.13868c0.93212,-0.92661 1.82419,-1.95408 2.66945,-3.08132c0.16788,-0.16773 0.336,-0.33581 0.504,-0.5039l0.09808,-0.03254c3.77289,-4.94814 6.2859,-11.45768 6.2859,-18.78333v-6.71983zM34.0518,70.19941c-0.23312,-0.23532 -0.46406,-0.47421 -0.69191,-0.71955l-0.67188,3.0241l1.84204,2.5295c0.06123,0.05221 0.12051,0.10514 0.17395,0.15843l6.98776,9.67562l2.21729,3.04449l4.52911,-10.19025c-5.52361,-0.67377 -10.4425,-3.48902 -14.38637,-7.52234zM3.96013,98.03931h37.22889l1.27281,-6.36399l-10.02548,-13.78477c-6.86691,0.85294 -14.57565,3.70789 -25.28423,9.39703c-2.01611,1.00815 -3.19199,3.0241 -3.19199,5.20813zM98.03972,92.49572c0,-2.18368 -1.17611,-4.19998 -3.1921,-5.37586c-10.48588,-5.49281 -18.33263,-8.3456 -25.17551,-9.37808l-10.13386,13.9339l1.27281,6.36399h37.22866z" fill="#6f9ac8" fill-opacity="1"></path></g></g></svg>