<?xml version="1.0" encoding="UTF-8"?>
<svg id="SVGDoc" width="103" height="93" xmlns="http://www.w3.org/2000/svg" version="1.1" xmlns:xlink="http://www.w3.org/1999/xlink" xmlns:avocode="https://avocode.com/" viewBox="0 0 103 93"><defs></defs><desc>Generated with Avocode.</desc><g><g><title>Shape 1</title><path d="M96.24137,34.32761v1.70767c0,1.02496 -0.68264,1.70803 -1.70666,1.70803c-1.02402,0 -1.70654,-0.68307 -1.70654,-1.70803v-1.70767c0,-1.02496 0.68253,-1.70803 1.70654,-1.70803c1.02402,0 1.70677,0.68307 1.70666,1.70803zM96.24137,20.49314v3.92854c0,0.85366 -0.68264,1.70767 -1.70666,1.70767c-1.02402,0 -1.70654,-0.68307 -1.70654,-1.70767v-3.92854c0,-1.0246 0.68253,-1.70767 1.70654,-1.70767c1.02402,0 1.70677,0.68307 1.70666,1.70767zM91.12151,8.70823c0,-1.0246 0.68264,-1.70767 1.70666,-1.70767h3.4132v3.41606c0,1.0246 -0.68264,1.70767 -1.70666,1.70767c-1.02402,0 -1.70654,-0.68307 -1.70654,-1.70767c-1.02402,0 -1.70666,-0.68343 -1.70666,-1.70839zM30.19351,8.70858c0,-1.02496 0.68264,-1.70803 1.70666,-1.70803h3.41331c1.02402,0 1.70666,0.68307 1.70666,1.70803c0,1.0246 -0.85327,1.70803 -1.70666,1.70803h-3.41331c-1.02402,0 -1.70666,-0.68343 -1.70666,-1.70803zM42.31097,8.70858c0,-1.02496 0.68253,-1.70803 1.70654,-1.70803h3.41343c1.02402,0 1.70654,0.68307 1.70654,1.70803c0,1.0246 -0.68253,1.70803 -1.70654,1.70803h-3.41343c-1.02402,0 -1.70654,-0.68343 -1.70654,-1.70803zM17.90553,8.70858c0,-1.02496 0.68264,-1.70803 1.70654,-1.70803h3.41343c1.02402,0 1.70666,0.68307 1.70666,1.70803c0,1.0246 -0.68264,1.70803 -1.70666,1.70803h-3.41343c-1.0239,0 -1.70654,-0.68343 -1.70654,-1.70803zM66.71607,8.70858c0,-1.02496 0.68264,-1.70803 1.70666,-1.70803h3.41343c1.02402,0 1.70654,0.68307 1.70654,1.70803c0,1.0246 -0.68253,1.70803 -1.70654,1.70803h-3.41343c-1.02402,0 -1.70666,-0.68343 -1.70666,-1.70803zM54.59895,8.70858c0,-1.02496 0.68253,-1.70803 1.70654,-1.70803h3.41343c1.02402,0 1.70654,0.68307 1.70654,1.70803c0,1.0246 -0.85316,1.70803 -1.70654,1.70803h-3.41343c-1.02402,0 -1.70654,-0.68343 -1.70654,-1.70803zM79.00417,8.70858c0,-1.02496 0.68253,-1.70803 1.70654,-1.70803h3.41343c1.02402,0 1.70654,0.68307 1.70654,1.70803c0,1.0246 -0.85316,1.70803 -1.70654,1.70803h-3.41343c-1.02402,0 -1.70654,-0.68343 -1.70654,-1.70803zM7.49473,10.41661v-3.41606h3.41343c1.02402,0 1.70654,0.68307 1.70654,1.70803c0,1.0246 -0.68253,1.70803 -1.70654,1.70803c0,1.0246 -0.68264,1.70767 -1.70666,1.70767c-1.02402,0 -1.70677,-0.68307 -1.70677,-1.70767zM7.49496,47.30807v-3.58665c0,-1.02496 0.68253,-1.70803 1.70654,-1.70803c1.02402,0 1.70666,0.68307 1.70666,1.70803v3.58665c0,1.0246 -0.68264,1.70767 -1.70666,1.70767c-1.02402,0 -1.70677,-0.68307 -1.70654,-1.70767zM7.49496,35.01068v-3.58665c0,-1.0246 0.68253,-1.70767 1.70654,-1.70767c1.02402,0 1.70666,0.68307 1.70666,1.70767v3.58665c0,1.02496 -0.68264,1.70803 -1.70666,1.70803c-1.02402,0 -1.70677,-0.68307 -1.70654,-1.70803zM7.49496,22.71365v-3.58665c0,-1.02496 0.68253,-1.70803 1.70654,-1.70803c1.02402,0 1.70666,0.68307 1.70666,1.70803v3.58665c0,1.0246 -0.68264,1.70803 -1.70666,1.70803c-1.02402,0 -1.70677,-0.68343 -1.70654,-1.70803zM7.49496,59.77606v-3.58665c0,-1.02496 0.68253,-1.70803 1.70654,-1.70803c1.02402,0 1.70666,0.68307 1.70666,1.70803v3.58665c0,0.85366 -0.68264,1.70767 -1.70666,1.70767c-1.02402,0 -1.70677,-0.68307 -1.70654,-1.70767zM10.90816,71.9025h-3.4132v-3.41606c0,-1.0246 0.68253,-1.70767 1.70654,-1.70767c1.02402,0 1.70666,0.68307 1.70666,1.70767c1.02402,0 1.70654,0.68307 1.70654,1.70803c0,1.0246 -0.68253,1.70803 -1.70654,1.70803zM36.50813,70.19447c0,1.0246 -0.68264,1.70767 -1.70666,1.70767h-3.41331c-1.02402,0 -1.70666,-0.68307 -1.70666,-1.70767c0,-1.02496 0.68264,-1.70803 1.70666,-1.70803h3.41331c1.02402,0 1.70666,0.68307 1.70666,1.70803zM17.7349,70.19447c0,-1.0246 0.68264,-1.70767 1.70666,-1.70767h3.41331c1.02402,0 1.70666,0.68307 1.70666,1.70767c0,1.02496 -0.68264,1.70803 -1.70666,1.70803h-3.41331c-1.02402,0 -1.70666,-0.68307 -1.70666,-1.70803zM48.45473,70.19447c0,1.0246 -0.68264,1.70767 -1.70666,1.70767h-3.41331c-1.02402,0 -1.70666,-0.68307 -1.70666,-1.70767c0,-1.02496 0.68264,-1.70803 1.70666,-1.70803h3.41331c1.02402,0 1.70666,0.68307 1.70666,1.70803zM58.69468,70.19447c0,1.0246 -0.68253,1.70767 -1.70654,1.70767h-1.70666c-1.0239,0 -1.70654,-0.68307 -1.70654,-1.70767c0,-1.02496 0.68264,-1.70803 1.70654,-1.70803h1.70666c1.02402,0 1.70654,0.68307 1.70654,1.70803zM103.06812,78.73427h-13.65337v11.9555c0,0.68307 -0.34138,1.3665 -1.02402,1.53708c-0.17063,0.17095 -0.51201,0.17095 -0.68264,0.17095c-0.51201,0 -0.85316,-0.17095 -1.19453,-0.51248l-9.04541,-9.05228l-9.04518,9.05228c-0.51201,0.51212 -1.19488,0.68307 -1.8774,0.34153c-0.68264,-0.17059 -1.02402,-0.85402 -1.02402,-1.53708v-11.9555h-64.85344v-78.56548h102.40002zM86.00177,86.59064v-18.61668c-5.12009,3.07453 -11.9466,3.07453 -17.06669,0v18.61668l7.33864,-7.34425c0.34115,-0.34153 0.68264,-0.51212 1.19465,-0.51212c0.51189,0 0.85316,0.17059 1.19453,0.51212l7.33864,7.34425zM91.12197,53.11524c0,-7.51483 -6.1441,-13.66353 -13.65349,-13.66353c-7.50938,0 -13.65337,6.1487 -13.65337,13.66353c0,5.16129 2.89799,9.67741 7.14581,12.00056c0.00561,0.00322 0.01122,0.00644 0.01682,0.00966c0.0642,0.03505 0.13058,0.06652 0.19535,0.10049c0.12703,0.06545 0.25349,0.13196 0.382,0.19348c0.37205,0.17846 0.75062,0.3401 1.13468,0.48423c0.38395,0.14412 0.77316,0.27072 1.1665,0.3798c0.19661,0.05436 0.39448,0.10478 0.5928,0.1502c0.38841,0.08941 0.78003,0.16129 1.17359,0.21601c0.0293,0.00393 0.05871,0.00751 0.08801,0.01109c0.16605,0.02217 0.33222,0.04148 0.49885,0.05722c0.08423,0.00787 0.16914,0.01323 0.25406,0.01931c0.12016,0.0093 0.24033,0.01895 0.36072,0.02503c0.21343,0.01001 0.42778,0.01645 0.64384,0.01645c0.21721,0 0.43282,-0.00644 0.64739,-0.01681c0.10494,-0.00501 0.21023,-0.01395 0.3154,-0.02146c0.10654,-0.00751 0.21343,-0.01466 0.3194,-0.02468c0.12383,-0.0118 0.24754,-0.02682 0.37113,-0.04184c0.09087,-0.01109 0.18162,-0.02217 0.2718,-0.03505c0.11524,-0.01609 0.23026,-0.03505 0.34527,-0.05436c0.11421,-0.01931 0.2282,-0.03898 0.34138,-0.06151c0.07816,-0.01502 0.15598,-0.03076 0.23403,-0.04721c6.1552,-1.31965 10.80757,-6.82211 10.80803,-13.36062zM99.65491,75.3182v-71.73371h-95.57339v71.73371h61.44001v-10.03897c-3.15456,-3.10385 -5.11997,-7.4147 -5.11997,-12.16435c0,-9.39345 7.6799,-17.07923 17.06657,-17.07923c9.38656,0 17.06657,7.68578 17.06657,17.07923c0,4.74966 -1.96541,9.0605 -5.11997,12.16435v10.03897zM82.58788,24.07979c0,1.02496 -0.68253,1.70803 -1.70654,1.70803h-58.02658c-1.02402,0 -1.70666,-0.68307 -1.70666,-1.70803c0,-1.0246 0.68264,-1.70767 1.70666,-1.70767h58.02681c1.0239,0 1.70631,0.68307 1.70631,1.70767zM62.10788,34.32761c0,1.0246 -0.68253,1.70767 -1.70654,1.70767h-37.54658c-1.02402,0 -1.70666,-0.68307 -1.70666,-1.70767c0,-1.02496 0.68264,-1.70803 1.70666,-1.70803h37.54681c1.0239,0 1.70631,0.68307 1.70631,1.70803zM21.1481,44.57544c0,-1.02496 0.68264,-1.70803 1.70666,-1.70803h32.42661c1.0239,0 1.70654,0.68307 1.70654,1.70803c0,1.0246 -0.68264,1.70767 -1.70654,1.70767h-32.42661c-1.02402,0 -1.70666,-0.68307 -1.70666,-1.70767zM21.1481,56.53094c0,-1.0246 0.68264,-1.70803 1.70666,-1.70803h32.42661c1.0239,0 1.70654,0.68343 1.70654,1.70803c0,1.0246 -0.68264,1.70803 -1.70654,1.70803h-32.42661c-1.02402,0 -1.70666,-0.68343 -1.70666,-1.70803z" fill="#6f9ac8" fill-opacity="1"></path></g></g></svg>